<?xml version="1.0" encoding="utf-8"?>
<!-- Generator: Adobe Illustrator 25.4.1, SVG Export Plug-In . SVG Version: 6.00 Build 0)  -->
<svg version="1.1" id="Ebene_1" xmlns="http://www.w3.org/2000/svg" xmlns:xlink="http://www.w3.org/1999/xlink" x="0px" y="0px"
	 viewBox="0 0 2545 700" style="enable-background:new 0 0 2545 700;" xml:space="preserve">
<style type="text/css">
	.st0{fill:#1D1D1B;}
</style>
<g>
	<path class="st0" d="M25,90C13.9,90,5,72.1,5,50s8.9-40,20-40s20,17.9,20,40S36,90,25,90z"/>
</g>
<g>
	<path class="st0" d="M75,90c-11,0-20-17.9-20-40s9-40,20-40s20,17.9,20,40S86.1,90,75,90z"/>
</g>
<g>
	<path class="st0" d="M25,190c-11.1,0-20-17.9-20-40s8.9-40,20-40s20,17.9,20,40S36,190,25,190z"/>
</g>
<g>
	<path class="st0" d="M75,190c-11,0-20-17.9-20-40s9-40,20-40s20,17.9,20,40S86.1,190,75,190z"/>
</g>
<g>
	<path class="st0" d="M25,290c-11.1,0-20-17.9-20-40s8.9-40,20-40s20,17.9,20,40S36,290,25,290z"/>
</g>
<g>
	<path class="st0" d="M75,290c-11,0-20-17.9-20-40s9-40,20-40s20,17.9,20,40S86.1,290,75,290z"/>
</g>
<g>
	<path class="st0" d="M75,390c-11,0-20-17.9-20-40s9-40,20-40s20,17.9,20,40S86.1,390,75,390z"/>
</g>
<g>
	<path class="st0" d="M125,390c-11.1,0-20-17.9-20-40s8.9-40,20-40s20,17.9,20,40S136,390,125,390z"/>
</g>
<g>
	<path class="st0" d="M175,390c-11,0-20-17.9-20-40s9-40,20-40s20,17.9,20,40S186.1,390,175,390z"/>
</g>
<g>
	<path class="st0" d="M225,390c-11.1,0-20-17.9-20-40s8.9-40,20-40s20,17.9,20,40S236,390,225,390z"/>
</g>
<g>
	<path class="st0" d="M275,390c-11,0-20-17.9-20-40s9-40,20-40s20,17.9,20,40S286.1,390,275,390z"/>
</g>
<g>
	<path class="st0" d="M325,390c-11.1,0-20-17.9-20-40s8.9-40,20-40s20,17.9,20,40S336,390,325,390z"/>
</g>
<g>
	<path class="st0" d="M375,390c-11,0-20-17.9-20-40s9-40,20-40s20,17.9,20,40S386.1,390,375,390z"/>
</g>
<g>
	<path class="st0" d="M25,490c-11.1,0-20-17.9-20-40s8.9-40,20-40s20,17.9,20,40S36,490,25,490z"/>
</g>
<g>
	<path class="st0" d="M75,490c-11,0-20-17.9-20-40s9-40,20-40s20,17.9,20,40S86.1,490,75,490z"/>
</g>
<g>
	<path class="st0" d="M25,590c-11.1,0-20-17.9-20-40s8.9-40,20-40s20,17.9,20,40S36,590,25,590z"/>
</g>
<g>
	<path class="st0" d="M75,590c-11,0-20-17.9-20-40s9-40,20-40s20,17.9,20,40S86.1,590,75,590z"/>
</g>
<g>
	<path class="st0" d="M25,690c-11.1,0-20-17.9-20-40s8.9-40,20-40s20,17.9,20,40S36,690,25,690z"/>
</g>
<g>
	<path class="st0" d="M75,690c-11,0-20-17.9-20-40s9-40,20-40s20,17.9,20,40S86.1,690,75,690z"/>
</g>
<g>
	<path class="st0" d="M425,90c-11.1,0-20-17.9-20-40s8.9-40,20-40s20,17.9,20,40S436,90,425,90z"/>
</g>
<g>
	<path class="st0" d="M475,90c-11,0-20-17.9-20-40s9-40,20-40s20,17.9,20,40S486.1,90,475,90z"/>
</g>
<g>
	<path class="st0" d="M425,190c-11.1,0-20-17.9-20-40s8.9-40,20-40s20,17.9,20,40S436,190,425,190z"/>
</g>
<g>
	<path class="st0" d="M475,190c-11,0-20-17.9-20-40s9-40,20-40s20,17.9,20,40S486.1,190,475,190z"/>
</g>
<g>
	<path class="st0" d="M425,290c-11.1,0-20-17.9-20-40s8.9-40,20-40s20,17.9,20,40S436,290,425,290z"/>
</g>
<g>
	<path class="st0" d="M475,290c-11,0-20-17.9-20-40s9-40,20-40s20,17.9,20,40S486.1,290,475,290z"/>
</g>
<g>
	<path class="st0" d="M425,390c-11.1,0-20-17.9-20-40s8.9-40,20-40s20,17.9,20,40S436,390,425,390z"/>
</g>
<g>
	<path class="st0" d="M425,490c-11.1,0-20-17.9-20-40s8.9-40,20-40s20,17.9,20,40S436,490,425,490z"/>
</g>
<g>
	<path class="st0" d="M475,490c-11,0-20-17.9-20-40s9-40,20-40s20,17.9,20,40S486.1,490,475,490z"/>
</g>
<g>
	<path class="st0" d="M425,590c-11.1,0-20-17.9-20-40s8.9-40,20-40s20,17.9,20,40S436,590,425,590z"/>
</g>
<g>
	<path class="st0" d="M475,590c-11,0-20-17.9-20-40s9-40,20-40s20,17.9,20,40S486.1,590,475,590z"/>
</g>
<g>
	<path class="st0" d="M425,690c-11.1,0-20-17.9-20-40s8.9-40,20-40s20,17.9,20,40S436,690,425,690z"/>
</g>
<g>
	<path class="st0" d="M475,690c-11,0-20-17.9-20-40s9-40,20-40s20,17.9,20,40S486.1,690,475,690z"/>
</g>
<g>
	<path class="st0" d="M2075,190c-11.1,0-20-17.9-20-40s8.9-40,20-40s20,17.9,20,40S2086,190,2075,190z"/>
</g>
<g>
	<path class="st0" d="M2125,190c-11,0-20-17.9-20-40s9-40,20-40s20,17.9,20,40S2136.1,190,2125,190z"/>
</g>
<g>
	<path class="st0" d="M2075,290c-11.1,0-20-17.9-20-40s8.9-40,20-40s20,17.9,20,40S2086,290,2075,290z"/>
</g>
<g>
	<path class="st0" d="M2125,290c-11,0-20-17.9-20-40s9-40,20-40s20,17.9,20,40S2136.1,290,2125,290z"/>
</g>
<g>
	<path class="st0" d="M2125,390c-11,0-20-17.9-20-40s9-40,20-40s20,17.9,20,40S2136.1,390,2125,390z"/>
</g>
<g>
	<path class="st0" d="M2175,90c-11.1,0-20-17.9-20-40s8.9-40,20-40s20,17.9,20,40S2186,90,2175,90z"/>
</g>
<g>
	<path class="st0" d="M2225,90c-11,0-20-17.9-20-40s9-40,20-40s20,17.9,20,40S2236.1,90,2225,90z"/>
</g>
<g>
	<path class="st0" d="M2275,90c-11.1,0-20-17.9-20-40s8.9-40,20-40s20,17.9,20,40S2286,90,2275,90z"/>
</g>
<g>
	<path class="st0" d="M2325,90c-11,0-20-17.9-20-40s9-40,20-40s20,17.9,20,40S2336.1,90,2325,90z"/>
</g>
<g>
	<path class="st0" d="M2375,90c-11.1,0-20-17.9-20-40s8.9-40,20-40s20,17.9,20,40S2386,90,2375,90z"/>
</g>
<g>
	<path class="st0" d="M2425,90c-11,0-20-17.9-20-40s9-40,20-40s20,17.9,20,40S2436.1,90,2425,90z"/>
</g>
<g>
	<path class="st0" d="M2175,690c-11.1,0-20-17.9-20-40s8.9-40,20-40s20,17.9,20,40S2186,690,2175,690z"/>
</g>
<g>
	<path class="st0" d="M2225,690c-11,0-20-17.9-20-40s9-40,20-40s20,17.9,20,40S2236.1,690,2225,690z"/>
</g>
<g>
	<path class="st0" d="M2275,690c-11.1,0-20-17.9-20-40s8.9-40,20-40s20,17.9,20,40S2286,690,2275,690z"/>
</g>
<g>
	<path class="st0" d="M2325,690c-11,0-20-17.9-20-40s9-40,20-40s20,17.9,20,40S2336.1,690,2325,690z"/>
</g>
<g>
	<path class="st0" d="M2375,690c-11.1,0-20-17.9-20-40s8.9-40,20-40s20,17.9,20,40S2386,690,2375,690z"/>
</g>
<g>
	<path class="st0" d="M2425,690c-11,0-20-17.9-20-40s9-40,20-40s20,17.9,20,40S2436.1,690,2425,690z"/>
</g>
<g>
	<path class="st0" d="M2075,490c-11.1,0-20-17.9-20-40s8.9-40,20-40s20,17.9,20,40S2086,490,2075,490z"/>
</g>
<g>
	<path class="st0" d="M2125,490c-11,0-20-17.9-20-40s9-40,20-40s20,17.9,20,40S2136.1,490,2125,490z"/>
</g>
<g>
	<path class="st0" d="M2075,590c-11.1,0-20-17.9-20-40s8.9-40,20-40s20,17.9,20,40S2086,590,2075,590z"/>
</g>
<g>
	<path class="st0" d="M2125,590c-11,0-20-17.9-20-40s9-40,20-40s20,17.9,20,40S2136.1,590,2125,590z"/>
</g>
<g>
	<path class="st0" d="M2475,190c-11.1,0-20-17.9-20-40s8.9-40,20-40s20,17.9,20,40S2486,190,2475,190z"/>
</g>
<g>
	<path class="st0" d="M2525,190c-11,0-20-17.9-20-40s9-40,20-40s20,17.9,20,40S2536.1,190,2525,190z"/>
</g>
<g>
	<path class="st0" d="M2475,290c-11.1,0-20-17.9-20-40s8.9-40,20-40s20,17.9,20,40S2486,290,2475,290z"/>
</g>
<g>
	<path class="st0" d="M2525,290c-11,0-20-17.9-20-40s9-40,20-40s20,17.9,20,40S2536.1,290,2525,290z"/>
</g>
<g>
	<path class="st0" d="M2475,390c-11.1,0-20-17.9-20-40s8.9-40,20-40s20,17.9,20,40S2486,390,2475,390z"/>
</g>
<g>
	<path class="st0" d="M2475,490c-11.1,0-20-17.9-20-40s8.9-40,20-40s20,17.9,20,40S2486,490,2475,490z"/>
</g>
<g>
	<path class="st0" d="M2525,490c-11,0-20-17.9-20-40s9-40,20-40s20,17.9,20,40S2536.1,490,2525,490z"/>
</g>
<g>
	<path class="st0" d="M2475,590c-11.1,0-20-17.9-20-40s8.9-40,20-40s20,17.9,20,40S2486,590,2475,590z"/>
</g>
<g>
	<path class="st0" d="M2525,590c-11,0-20-17.9-20-40s9-40,20-40s20,17.9,20,40S2536.1,590,2525,590z"/>
</g>
<g>
	<path class="st0" d="M675,90c-11.1,0-20-17.9-20-40s8.9-40,20-40s20,17.9,20,40S686,90,675,90z"/>
</g>
<g>
	<path class="st0" d="M725,90c-11,0-20-17.9-20-40s9-40,20-40s20,17.9,20,40S736.1,90,725,90z"/>
</g>
<g>
	<path class="st0" d="M675,190c-11.1,0-20-17.9-20-40s8.9-40,20-40s20,17.9,20,40S686,190,675,190z"/>
</g>
<g>
	<path class="st0" d="M675,290c-11.1,0-20-17.9-20-40s8.9-40,20-40s20,17.9,20,40S686,290,675,290z"/>
</g>
<g>
	<path class="st0" d="M725,290c-11,0-20-17.9-20-40s9-40,20-40s20,17.9,20,40S736.1,290,725,290z"/>
</g>
<g>
	<path class="st0" d="M725,390c-11,0-20-17.9-20-40s9-40,20-40s20,17.9,20,40S736.1,390,725,390z"/>
</g>
<g>
	<path class="st0" d="M775,90c-11.1,0-20-17.9-20-40s8.9-40,20-40s20,17.9,20,40S786,90,775,90z"/>
</g>
<g>
	<path class="st0" d="M825,90c-11,0-20-17.9-20-40s9-40,20-40s20,17.9,20,40S836.1,90,825,90z"/>
</g>
<g>
	<path class="st0" d="M875,90c-11.1,0-20-17.9-20-40s8.9-40,20-40s20,17.9,20,40S886,90,875,90z"/>
</g>
<g>
	<path class="st0" d="M925,90c-11,0-20-17.9-20-40s9-40,20-40s20,17.9,20,40S936.1,90,925,90z"/>
</g>
<g>
	<path class="st0" d="M975,90c-11.1,0-20-17.9-20-40s8.9-40,20-40s20,17.9,20,40S986,90,975,90z"/>
</g>
<g>
	<path class="st0" d="M1025,90c-11,0-20-17.9-20-40s9-40,20-40s20,17.9,20,40S1036.1,90,1025,90z"/>
</g>
<g>
	<path class="st0" d="M775,690c-11.1,0-20-17.9-20-40s8.9-40,20-40s20,17.9,20,40S786,690,775,690z"/>
</g>
<g>
	<path class="st0" d="M825,690c-11,0-20-17.9-20-40s9-40,20-40s20,17.9,20,40S836.1,690,825,690z"/>
</g>
<g>
	<path class="st0" d="M875,690c-11.1,0-20-17.9-20-40s8.9-40,20-40s20,17.9,20,40S886,690,875,690z"/>
</g>
<g>
	<path class="st0" d="M925,690c-11,0-20-17.9-20-40s9-40,20-40s20,17.9,20,40S936.1,690,925,690z"/>
</g>
<g>
	<path class="st0" d="M975,690c-11.1,0-20-17.9-20-40s8.9-40,20-40s20,17.9,20,40S986,690,975,690z"/>
</g>
<g>
	<path class="st0" d="M1025,690c-11,0-20-17.9-20-40s9-40,20-40s20,17.9,20,40S1036.1,690,1025,690z"/>
</g>
<g>
	<path class="st0" d="M825,390c-11,0-20-17.9-20-40s9-40,20-40s20,17.9,20,40S836.1,390,825,390z"/>
</g>
<g>
	<path class="st0" d="M875,390c-11.1,0-20-17.9-20-40s8.9-40,20-40s20,17.9,20,40S886,390,875,390z"/>
</g>
<g>
	<path class="st0" d="M925,390c-11,0-20-17.9-20-40s9-40,20-40s20,17.9,20,40S936.1,390,925,390z"/>
</g>
<g>
	<path class="st0" d="M975,390c-11.1,0-20-17.9-20-40s8.9-40,20-40s20,17.9,20,40S986,390,975,390z"/>
</g>
<g>
	<path class="st0" d="M675,490c-11.1,0-20-17.9-20-40s8.9-40,20-40s20,17.9,20,40S686,490,675,490z"/>
</g>
<g>
	<path class="st0" d="M725,490c-11,0-20-17.9-20-40s9-40,20-40s20,17.9,20,40S736.1,490,725,490z"/>
</g>
<g>
	<path class="st0" d="M675,590c-11.1,0-20-17.9-20-40s8.9-40,20-40s20,17.9,20,40S686,590,675,590z"/>
</g>
<g>
	<path class="st0" d="M725,590c-11,0-20-17.9-20-40s9-40,20-40s20,17.9,20,40S736.1,590,725,590z"/>
</g>
<g>
	<path class="st0" d="M675,690c-11.1,0-20-17.9-20-40s8.9-40,20-40s20,17.9,20,40S686,690,675,690z"/>
</g>
<g>
	<path class="st0" d="M725,690c-11,0-20-17.9-20-40s9-40,20-40s20,17.9,20,40S736.1,690,725,690z"/>
</g>
<g>
	<path class="st0" d="M1175,90c-11.1,0-20-17.9-20-40s8.9-40,20-40s20,17.9,20,40S1186,90,1175,90z"/>
</g>
<g>
	<path class="st0" d="M1225,90c-11,0-20-17.9-20-40s9-40,20-40s20,17.9,20,40S1236.1,90,1225,90z"/>
</g>
<g>
	<path class="st0" d="M1175,190c-11.1,0-20-17.9-20-40s8.9-40,20-40s20,17.9,20,40S1186,190,1175,190z"/>
</g>
<g>
	<path class="st0" d="M1175,290c-11.1,0-20-17.9-20-40s8.9-40,20-40s20,17.9,20,40S1186,290,1175,290z"/>
</g>
<g>
	<path class="st0" d="M1225,290c-11,0-20-17.9-20-40s9-40,20-40s20,17.9,20,40S1236.1,290,1225,290z"/>
</g>
<g>
	<path class="st0" d="M1225,390c-11,0-20-17.9-20-40s9-40,20-40s20,17.9,20,40S1236.1,390,1225,390z"/>
</g>
<g>
	<path class="st0" d="M1275,690c-11.1,0-20-17.9-20-40s8.9-40,20-40s20,17.9,20,40S1286,690,1275,690z"/>
</g>
<g>
	<path class="st0" d="M1325,690c-11,0-20-17.9-20-40s9-40,20-40s20,17.9,20,40S1336.1,690,1325,690z"/>
</g>
<g>
	<path class="st0" d="M1375,690c-11.1,0-20-17.9-20-40s8.9-40,20-40s20,17.9,20,40S1386,690,1375,690z"/>
</g>
<g>
	<path class="st0" d="M1425,690c-11,0-20-17.9-20-40s9-40,20-40s20,17.9,20,40S1436.1,690,1425,690z"/>
</g>
<g>
	<path class="st0" d="M1475,690c-11.1,0-20-17.9-20-40s8.9-40,20-40s20,17.9,20,40S1486,690,1475,690z"/>
</g>
<g>
	<path class="st0" d="M1525,690c-11,0-20-17.9-20-40s9-40,20-40s20,17.9,20,40S1536.1,690,1525,690z"/>
</g>
<g>
	<path class="st0" d="M1175,490c-11.1,0-20-17.9-20-40s8.9-40,20-40s20,17.9,20,40S1186,490,1175,490z"/>
</g>
<g>
	<path class="st0" d="M1225,490c-11,0-20-17.9-20-40s9-40,20-40s20,17.9,20,40S1236.1,490,1225,490z"/>
</g>
<g>
	<path class="st0" d="M1175,590c-11.1,0-20-17.9-20-40s8.9-40,20-40s20,17.9,20,40S1186,590,1175,590z"/>
</g>
<g>
	<path class="st0" d="M1225,590c-11,0-20-17.9-20-40s9-40,20-40s20,17.9,20,40S1236.1,590,1225,590z"/>
</g>
<g>
	<path class="st0" d="M1175,690c-11.1,0-20-17.9-20-40s8.9-40,20-40s20,17.9,20,40S1186,690,1175,690z"/>
</g>
<g>
	<path class="st0" d="M1225,690c-11,0-20-17.9-20-40s9-40,20-40s20,17.9,20,40S1236.1,690,1225,690z"/>
</g>
<g>
	<path class="st0" d="M1625,90c-11.1,0-20-17.9-20-40s8.9-40,20-40s20,17.9,20,40S1636,90,1625,90z"/>
</g>
<g>
	<path class="st0" d="M1675,90c-11,0-20-17.9-20-40s9-40,20-40s20,17.9,20,40S1686.1,90,1675,90z"/>
</g>
<g>
	<path class="st0" d="M1625,190c-11.1,0-20-17.9-20-40s8.9-40,20-40s20,17.9,20,40S1636,190,1625,190z"/>
</g>
<g>
	<path class="st0" d="M1625,290c-11.1,0-20-17.9-20-40s8.9-40,20-40s20,17.9,20,40S1636,290,1625,290z"/>
</g>
<g>
	<path class="st0" d="M1675,290c-11,0-20-17.9-20-40s9-40,20-40s20,17.9,20,40S1686.1,290,1675,290z"/>
</g>
<g>
	<path class="st0" d="M1675,390c-11,0-20-17.9-20-40s9-40,20-40s20,17.9,20,40S1686.1,390,1675,390z"/>
</g>
<g>
	<path class="st0" d="M1725,690c-11.1,0-20-17.9-20-40s8.9-40,20-40s20,17.9,20,40S1736,690,1725,690z"/>
</g>
<g>
	<path class="st0" d="M1775,690c-11,0-20-17.9-20-40s9-40,20-40s20,17.9,20,40S1786.1,690,1775,690z"/>
</g>
<g>
	<path class="st0" d="M1825,690c-11.1,0-20-17.9-20-40s8.9-40,20-40s20,17.9,20,40S1836,690,1825,690z"/>
</g>
<g>
	<path class="st0" d="M1875,690c-11,0-20-17.9-20-40s9-40,20-40s20,17.9,20,40S1886.1,690,1875,690z"/>
</g>
<g>
	<path class="st0" d="M1925,690c-11.1,0-20-17.9-20-40s8.9-40,20-40s20,17.9,20,40S1936,690,1925,690z"/>
</g>
<g>
	<path class="st0" d="M1975,690c-11,0-20-17.9-20-40s9-40,20-40s20,17.9,20,40S1986.1,690,1975,690z"/>
</g>
<g>
	<path class="st0" d="M1625,490c-11.1,0-20-17.9-20-40s8.9-40,20-40s20,17.9,20,40S1636,490,1625,490z"/>
</g>
<g>
	<path class="st0" d="M1675,490c-11,0-20-17.9-20-40s9-40,20-40s20,17.9,20,40S1686.1,490,1675,490z"/>
</g>
<g>
	<path class="st0" d="M1625,590c-11.1,0-20-17.9-20-40s8.9-40,20-40s20,17.9,20,40S1636,590,1625,590z"/>
</g>
<g>
	<path class="st0" d="M1675,590c-11,0-20-17.9-20-40s9-40,20-40s20,17.9,20,40S1686.1,590,1675,590z"/>
</g>
<g>
	<path class="st0" d="M1625,690c-11.1,0-20-17.9-20-40s8.9-40,20-40s20,17.9,20,40S1636,690,1625,690z"/>
</g>
<g>
	<path class="st0" d="M1675,690c-11,0-20-17.9-20-40s9-40,20-40s20,17.9,20,40S1686.1,690,1675,690z"/>
</g>
</svg>
