<?xml version="1.0" encoding="utf-8"?>
<!-- Generator: Adobe Illustrator 25.4.1, SVG Export Plug-In . SVG Version: 6.00 Build 0)  -->
<svg version="1.1" id="Ebene_1" xmlns="http://www.w3.org/2000/svg" xmlns:xlink="http://www.w3.org/1999/xlink" x="0px" y="0px"
	 viewBox="0 0 2545 700" style="enable-background:new 0 0 2545 700;" xml:space="preserve">
<style type="text/css">
	.st0{fill:#20CB00;}
</style>
<g>
	<path class="st0" d="M0,0v100h50V0H0z M25,90C13.9,90,5,72.1,5,50s8.9-40,20-40s20,17.9,20,40S36,90,25,90z"/>
</g>
<g>
	<path class="st0" d="M50,0v100h50V0H50z M75,90c-11,0-20-17.9-20-40s9-40,20-40s20,17.9,20,40S86.1,90,75,90z"/>
</g>
<g>
	<path class="st0" d="M0,100v100h50V100H0z M25,190c-11.1,0-20-17.9-20-40s8.9-40,20-40s20,17.9,20,40S36,190,25,190z"/>
</g>
<g>
	<path class="st0" d="M50,100v100h50V100H50z M75,190c-11,0-20-17.9-20-40s9-40,20-40s20,17.9,20,40S86.1,190,75,190z"/>
</g>
<g>
	<path class="st0" d="M0,200v100h50V200H0z M25,290c-11.1,0-20-17.9-20-40s8.9-40,20-40s20,17.9,20,40S36,290,25,290z"/>
</g>
<g>
	<path class="st0" d="M50,200v100h50V200H50z M75,290c-11,0-20-17.9-20-40s9-40,20-40s20,17.9,20,40S86.1,290,75,290z"/>
</g>
<g>
	<path class="st0" d="M50,300v100h50V300H50z M75,390c-11,0-20-17.9-20-40s9-40,20-40s20,17.9,20,40S86.1,390,75,390z"/>
</g>
<g>
	<path class="st0" d="M100,300v100h50V300H100z M125,390c-11.1,0-20-17.9-20-40s8.9-40,20-40s20,17.9,20,40S136,390,125,390z"/>
</g>
<g>
	<path class="st0" d="M150,300v100h50V300H150z M175,390c-11,0-20-17.9-20-40s9-40,20-40s20,17.9,20,40S186.1,390,175,390z"/>
</g>
<g>
	<path class="st0" d="M200,300v100h50V300H200z M225,390c-11.1,0-20-17.9-20-40s8.9-40,20-40s20,17.9,20,40S236,390,225,390z"/>
</g>
<g>
	<path class="st0" d="M250,300v100h50V300H250z M275,390c-11,0-20-17.9-20-40s9-40,20-40s20,17.9,20,40S286.1,390,275,390z"/>
</g>
<g>
	<path class="st0" d="M300,300v100h50V300H300z M325,390c-11.1,0-20-17.9-20-40s8.9-40,20-40s20,17.9,20,40S336,390,325,390z"/>
</g>
<g>
	<path class="st0" d="M350,300v100h50V300H350z M375,390c-11,0-20-17.9-20-40s9-40,20-40s20,17.9,20,40S386.1,390,375,390z"/>
</g>
<g>
	<path class="st0" d="M0,400v100h50V400H0z M25,490c-11.1,0-20-17.9-20-40s8.9-40,20-40s20,17.9,20,40S36,490,25,490z"/>
</g>
<g>
	<path class="st0" d="M50,400v100h50V400H50z M75,490c-11,0-20-17.9-20-40s9-40,20-40s20,17.9,20,40S86.1,490,75,490z"/>
</g>
<g>
	<path class="st0" d="M0,500v100h50V500H0z M25,590c-11.1,0-20-17.9-20-40s8.9-40,20-40s20,17.9,20,40S36,590,25,590z"/>
</g>
<g>
	<path class="st0" d="M50,500v100h50V500H50z M75,590c-11,0-20-17.9-20-40s9-40,20-40s20,17.9,20,40S86.1,590,75,590z"/>
</g>
<g>
	<path class="st0" d="M0,600v100h50V600H0z M25,690c-11.1,0-20-17.9-20-40s8.9-40,20-40s20,17.9,20,40S36,690,25,690z"/>
</g>
<g>
	<path class="st0" d="M50,600v100h50V600H50z M75,690c-11,0-20-17.9-20-40s9-40,20-40s20,17.9,20,40S86.1,690,75,690z"/>
</g>
<g>
	<path class="st0" d="M400,0v100h50V0H400z M425,90c-11.1,0-20-17.9-20-40s8.9-40,20-40s20,17.9,20,40S436,90,425,90z"/>
</g>
<g>
	<path class="st0" d="M450,0v100h50V0H450z M475,90c-11,0-20-17.9-20-40s9-40,20-40s20,17.9,20,40S486.1,90,475,90z"/>
</g>
<g>
	<path class="st0" d="M400,100v100h50V100H400z M425,190c-11.1,0-20-17.9-20-40s8.9-40,20-40s20,17.9,20,40S436,190,425,190z"/>
</g>
<g>
	<path class="st0" d="M450,100v100h50V100H450z M475,190c-11,0-20-17.9-20-40s9-40,20-40s20,17.9,20,40S486.1,190,475,190z"/>
</g>
<g>
	<path class="st0" d="M400,200v100h50V200H400z M425,290c-11.1,0-20-17.9-20-40s8.9-40,20-40s20,17.9,20,40S436,290,425,290z"/>
</g>
<g>
	<path class="st0" d="M450,200v100h50V200H450z M475,290c-11,0-20-17.9-20-40s9-40,20-40s20,17.9,20,40S486.1,290,475,290z"/>
</g>
<g>
	<path class="st0" d="M400,300v100h50V300H400z M425,390c-11.1,0-20-17.9-20-40s8.9-40,20-40s20,17.9,20,40S436,390,425,390z"/>
</g>
<g>
	<path class="st0" d="M400,400v100h50V400H400z M425,490c-11.1,0-20-17.9-20-40s8.9-40,20-40s20,17.9,20,40S436,490,425,490z"/>
</g>
<g>
	<path class="st0" d="M450,400v100h50V400H450z M475,490c-11,0-20-17.9-20-40s9-40,20-40s20,17.9,20,40S486.1,490,475,490z"/>
</g>
<g>
	<path class="st0" d="M400,500v100h50V500H400z M425,590c-11.1,0-20-17.9-20-40s8.9-40,20-40s20,17.9,20,40S436,590,425,590z"/>
</g>
<g>
	<path class="st0" d="M450,500v100h50V500H450z M475,590c-11,0-20-17.9-20-40s9-40,20-40s20,17.9,20,40S486.1,590,475,590z"/>
</g>
<g>
	<path class="st0" d="M400,600v100h50V600H400z M425,690c-11.1,0-20-17.9-20-40s8.9-40,20-40s20,17.9,20,40S436,690,425,690z"/>
</g>
<g>
	<path class="st0" d="M450,600v100h50V600H450z M475,690c-11,0-20-17.9-20-40s9-40,20-40s20,17.9,20,40S486.1,690,475,690z"/>
</g>
<g>
	<path class="st0" d="M2050,100v100h50V100H2050z M2075,190c-11.1,0-20-17.9-20-40s8.9-40,20-40s20,17.9,20,40S2086,190,2075,190z"
		/>
</g>
<g>
	<path class="st0" d="M2100,100v100h50V100H2100z M2125,190c-11,0-20-17.9-20-40s9-40,20-40s20,17.9,20,40S2136.1,190,2125,190z"/>
</g>
<g>
	<path class="st0" d="M2050,200v100h50V200H2050z M2075,290c-11.1,0-20-17.9-20-40s8.9-40,20-40s20,17.9,20,40S2086,290,2075,290z"
		/>
</g>
<g>
	<path class="st0" d="M2100,200v100h50V200H2100z M2125,290c-11,0-20-17.9-20-40s9-40,20-40s20,17.9,20,40S2136.1,290,2125,290z"/>
</g>
<g>
	<path class="st0" d="M2100,300v100h50V300H2100z M2125,390c-11,0-20-17.9-20-40s9-40,20-40s20,17.9,20,40S2136.1,390,2125,390z"/>
</g>
<g>
	<path class="st0" d="M2150,0v100h50V0H2150z M2175,90c-11.1,0-20-17.9-20-40s8.9-40,20-40s20,17.9,20,40S2186,90,2175,90z"/>
</g>
<g>
	<path class="st0" d="M2200,0v100h50V0H2200z M2225,90c-11,0-20-17.9-20-40s9-40,20-40s20,17.9,20,40S2236.1,90,2225,90z"/>
</g>
<g>
	<path class="st0" d="M2250,0v100h50V0H2250z M2275,90c-11.1,0-20-17.9-20-40s8.9-40,20-40s20,17.9,20,40S2286,90,2275,90z"/>
</g>
<g>
	<path class="st0" d="M2300,0v100h50V0H2300z M2325,90c-11,0-20-17.9-20-40s9-40,20-40s20,17.9,20,40S2336.1,90,2325,90z"/>
</g>
<g>
	<path class="st0" d="M2350,0v100h50V0H2350z M2375,90c-11.1,0-20-17.9-20-40s8.9-40,20-40s20,17.9,20,40S2386,90,2375,90z"/>
</g>
<g>
	<path class="st0" d="M2400,0v100h50V0H2400z M2425,90c-11,0-20-17.9-20-40s9-40,20-40s20,17.9,20,40S2436.1,90,2425,90z"/>
</g>
<g>
	<path class="st0" d="M2150,600v100h50V600H2150z M2175,690c-11.1,0-20-17.9-20-40s8.9-40,20-40s20,17.9,20,40S2186,690,2175,690z"
		/>
</g>
<g>
	<path class="st0" d="M2200,600v100h50V600H2200z M2225,690c-11,0-20-17.9-20-40s9-40,20-40s20,17.9,20,40S2236.1,690,2225,690z"/>
</g>
<g>
	<path class="st0" d="M2250,600v100h50V600H2250z M2275,690c-11.1,0-20-17.9-20-40s8.9-40,20-40s20,17.9,20,40S2286,690,2275,690z"
		/>
</g>
<g>
	<path class="st0" d="M2300,600v100h50V600H2300z M2325,690c-11,0-20-17.9-20-40s9-40,20-40s20,17.9,20,40S2336.1,690,2325,690z"/>
</g>
<g>
	<path class="st0" d="M2350,600v100h50V600H2350z M2375,690c-11.1,0-20-17.9-20-40s8.9-40,20-40s20,17.9,20,40S2386,690,2375,690z"
		/>
</g>
<g>
	<path class="st0" d="M2400,600v100h50V600H2400z M2425,690c-11,0-20-17.9-20-40s9-40,20-40s20,17.9,20,40S2436.1,690,2425,690z"/>
</g>
<g>
	<path class="st0" d="M2050,400v100h50V400H2050z M2075,490c-11.1,0-20-17.9-20-40s8.9-40,20-40s20,17.9,20,40S2086,490,2075,490z"
		/>
</g>
<g>
	<path class="st0" d="M2100,400v100h50V400H2100z M2125,490c-11,0-20-17.9-20-40s9-40,20-40s20,17.9,20,40S2136.1,490,2125,490z"/>
</g>
<g>
	<path class="st0" d="M2050,500v100h50V500H2050z M2075,590c-11.1,0-20-17.9-20-40s8.9-40,20-40s20,17.9,20,40S2086,590,2075,590z"
		/>
</g>
<g>
	<path class="st0" d="M2100,500v100h50V500H2100z M2125,590c-11,0-20-17.9-20-40s9-40,20-40s20,17.9,20,40S2136.1,590,2125,590z"/>
</g>
<g>
	<path class="st0" d="M2450,100v100h50V100H2450z M2475,190c-11.1,0-20-17.9-20-40s8.9-40,20-40s20,17.9,20,40S2486,190,2475,190z"
		/>
</g>
<g>
	<path class="st0" d="M2500,100v100h50V100H2500z M2525,190c-11,0-20-17.9-20-40s9-40,20-40s20,17.9,20,40S2536.1,190,2525,190z"/>
</g>
<g>
	<path class="st0" d="M2450,200v100h50V200H2450z M2475,290c-11.1,0-20-17.9-20-40s8.9-40,20-40s20,17.9,20,40S2486,290,2475,290z"
		/>
</g>
<g>
	<path class="st0" d="M2500,200v100h50V200H2500z M2525,290c-11,0-20-17.9-20-40s9-40,20-40s20,17.9,20,40S2536.1,290,2525,290z"/>
</g>
<g>
	<path class="st0" d="M2450,300v100h50V300H2450z M2475,390c-11.1,0-20-17.9-20-40s8.9-40,20-40s20,17.9,20,40S2486,390,2475,390z"
		/>
</g>
<g>
	<path class="st0" d="M2450,400v100h50V400H2450z M2475,490c-11.1,0-20-17.9-20-40s8.9-40,20-40s20,17.9,20,40S2486,490,2475,490z"
		/>
</g>
<g>
	<path class="st0" d="M2500,400v100h50V400H2500z M2525,490c-11,0-20-17.9-20-40s9-40,20-40s20,17.9,20,40S2536.1,490,2525,490z"/>
</g>
<g>
	<path class="st0" d="M2450,500v100h50V500H2450z M2475,590c-11.1,0-20-17.9-20-40s8.9-40,20-40s20,17.9,20,40S2486,590,2475,590z"
		/>
</g>
<g>
	<path class="st0" d="M2500,500v100h50V500H2500z M2525,590c-11,0-20-17.9-20-40s9-40,20-40s20,17.9,20,40S2536.1,590,2525,590z"/>
</g>
<g>
	<path class="st0" d="M650,0v100h50V0H650z M675,90c-11.1,0-20-17.9-20-40s8.9-40,20-40s20,17.9,20,40S686,90,675,90z"/>
</g>
<g>
	<path class="st0" d="M700,0v100h50V0H700z M725,90c-11,0-20-17.9-20-40s9-40,20-40s20,17.9,20,40S736.1,90,725,90z"/>
</g>
<g>
	<path class="st0" d="M650,100v100h50V100H650z M675,190c-11.1,0-20-17.9-20-40s8.9-40,20-40s20,17.9,20,40S686,190,675,190z"/>
</g>
<g>
	<path class="st0" d="M650,200v100h50V200H650z M675,290c-11.1,0-20-17.9-20-40s8.9-40,20-40s20,17.9,20,40S686,290,675,290z"/>
</g>
<g>
	<path class="st0" d="M700,200v100h50V200H700z M725,290c-11,0-20-17.9-20-40s9-40,20-40s20,17.9,20,40S736.1,290,725,290z"/>
</g>
<g>
	<path class="st0" d="M700,300v100h50V300H700z M725,390c-11,0-20-17.9-20-40s9-40,20-40s20,17.9,20,40S736.1,390,725,390z"/>
</g>
<g>
	<path class="st0" d="M750,0v100h50V0H750z M775,90c-11.1,0-20-17.9-20-40s8.9-40,20-40s20,17.9,20,40S786,90,775,90z"/>
</g>
<g>
	<path class="st0" d="M800,0v100h50V0H800z M825,90c-11,0-20-17.9-20-40s9-40,20-40s20,17.9,20,40S836.1,90,825,90z"/>
</g>
<g>
	<path class="st0" d="M850,0v100h50V0H850z M875,90c-11.1,0-20-17.9-20-40s8.9-40,20-40s20,17.9,20,40S886,90,875,90z"/>
</g>
<g>
	<path class="st0" d="M900,0v100h50V0H900z M925,90c-11,0-20-17.9-20-40s9-40,20-40s20,17.9,20,40S936.1,90,925,90z"/>
</g>
<g>
	<path class="st0" d="M950,0v100h50V0H950z M975,90c-11.1,0-20-17.9-20-40s8.9-40,20-40s20,17.9,20,40S986,90,975,90z"/>
</g>
<g>
	<path class="st0" d="M1000,0v100h50V0H1000z M1025,90c-11,0-20-17.9-20-40s9-40,20-40s20,17.9,20,40S1036.1,90,1025,90z"/>
</g>
<g>
	<path class="st0" d="M750,600v100h50V600H750z M775,690c-11.1,0-20-17.9-20-40s8.9-40,20-40s20,17.9,20,40S786,690,775,690z"/>
</g>
<g>
	<path class="st0" d="M800,600v100h50V600H800z M825,690c-11,0-20-17.9-20-40s9-40,20-40s20,17.9,20,40S836.1,690,825,690z"/>
</g>
<g>
	<path class="st0" d="M850,600v100h50V600H850z M875,690c-11.1,0-20-17.9-20-40s8.9-40,20-40s20,17.9,20,40S886,690,875,690z"/>
</g>
<g>
	<path class="st0" d="M900,600v100h50V600H900z M925,690c-11,0-20-17.9-20-40s9-40,20-40s20,17.9,20,40S936.1,690,925,690z"/>
</g>
<g>
	<path class="st0" d="M950,600v100h50V600H950z M975,690c-11.1,0-20-17.9-20-40s8.9-40,20-40s20,17.9,20,40S986,690,975,690z"/>
</g>
<g>
	<path class="st0" d="M1000,600v100h50V600H1000z M1025,690c-11,0-20-17.9-20-40s9-40,20-40s20,17.9,20,40S1036.1,690,1025,690z"/>
</g>
<g>
	<path class="st0" d="M800,300v100h50V300H800z M825,390c-11,0-20-17.9-20-40s9-40,20-40s20,17.9,20,40S836.1,390,825,390z"/>
</g>
<g>
	<path class="st0" d="M850,300v100h50V300H850z M875,390c-11.1,0-20-17.9-20-40s8.9-40,20-40s20,17.9,20,40S886,390,875,390z"/>
</g>
<g>
	<path class="st0" d="M900,300v100h50V300H900z M925,390c-11,0-20-17.9-20-40s9-40,20-40s20,17.9,20,40S936.1,390,925,390z"/>
</g>
<g>
	<path class="st0" d="M950,300v100h50V300H950z M975,390c-11.1,0-20-17.9-20-40s8.9-40,20-40s20,17.9,20,40S986,390,975,390z"/>
</g>
<g>
	<path class="st0" d="M650,400v100h50V400H650z M675,490c-11.1,0-20-17.9-20-40s8.9-40,20-40s20,17.9,20,40S686,490,675,490z"/>
</g>
<g>
	<path class="st0" d="M700,400v100h50V400H700z M725,490c-11,0-20-17.9-20-40s9-40,20-40s20,17.9,20,40S736.1,490,725,490z"/>
</g>
<g>
	<path class="st0" d="M650,500v100h50V500H650z M675,590c-11.1,0-20-17.9-20-40s8.9-40,20-40s20,17.9,20,40S686,590,675,590z"/>
</g>
<g>
	<path class="st0" d="M700,500v100h50V500H700z M725,590c-11,0-20-17.9-20-40s9-40,20-40s20,17.9,20,40S736.1,590,725,590z"/>
</g>
<g>
	<path class="st0" d="M650,600v100h50V600H650z M675,690c-11.1,0-20-17.9-20-40s8.9-40,20-40s20,17.9,20,40S686,690,675,690z"/>
</g>
<g>
	<path class="st0" d="M700,600v100h50V600H700z M725,690c-11,0-20-17.9-20-40s9-40,20-40s20,17.9,20,40S736.1,690,725,690z"/>
</g>
<g>
	<path class="st0" d="M1150,0v100h50V0H1150z M1175,90c-11.1,0-20-17.9-20-40s8.9-40,20-40s20,17.9,20,40S1186,90,1175,90z"/>
</g>
<g>
	<path class="st0" d="M1200,0v100h50V0H1200z M1225,90c-11,0-20-17.9-20-40s9-40,20-40s20,17.9,20,40S1236.1,90,1225,90z"/>
</g>
<g>
	<path class="st0" d="M1150,100v100h50V100H1150z M1175,190c-11.1,0-20-17.9-20-40s8.9-40,20-40s20,17.9,20,40S1186,190,1175,190z"
		/>
</g>
<g>
	<path class="st0" d="M1150,200v100h50V200H1150z M1175,290c-11.1,0-20-17.9-20-40s8.9-40,20-40s20,17.9,20,40S1186,290,1175,290z"
		/>
</g>
<g>
	<path class="st0" d="M1200,200v100h50V200H1200z M1225,290c-11,0-20-17.9-20-40s9-40,20-40s20,17.9,20,40S1236.1,290,1225,290z"/>
</g>
<g>
	<path class="st0" d="M1200,300v100h50V300H1200z M1225,390c-11,0-20-17.9-20-40s9-40,20-40s20,17.9,20,40S1236.1,390,1225,390z"/>
</g>
<g>
	<path class="st0" d="M1250,600v100h50V600H1250z M1275,690c-11.1,0-20-17.9-20-40s8.9-40,20-40s20,17.9,20,40S1286,690,1275,690z"
		/>
</g>
<g>
	<path class="st0" d="M1300,600v100h50V600H1300z M1325,690c-11,0-20-17.9-20-40s9-40,20-40s20,17.9,20,40S1336.1,690,1325,690z"/>
</g>
<g>
	<path class="st0" d="M1350,600v100h50V600H1350z M1375,690c-11.1,0-20-17.9-20-40s8.9-40,20-40s20,17.9,20,40S1386,690,1375,690z"
		/>
</g>
<g>
	<path class="st0" d="M1400,600v100h50V600H1400z M1425,690c-11,0-20-17.9-20-40s9-40,20-40s20,17.9,20,40S1436.1,690,1425,690z"/>
</g>
<g>
	<path class="st0" d="M1450,600v100h50V600H1450z M1475,690c-11.1,0-20-17.9-20-40s8.9-40,20-40s20,17.9,20,40S1486,690,1475,690z"
		/>
</g>
<g>
	<path class="st0" d="M1500,600v100h50V600H1500z M1525,690c-11,0-20-17.9-20-40s9-40,20-40s20,17.9,20,40S1536.1,690,1525,690z"/>
</g>
<g>
	<path class="st0" d="M1150,400v100h50V400H1150z M1175,490c-11.1,0-20-17.9-20-40s8.9-40,20-40s20,17.9,20,40S1186,490,1175,490z"
		/>
</g>
<g>
	<path class="st0" d="M1200,400v100h50V400H1200z M1225,490c-11,0-20-17.9-20-40s9-40,20-40s20,17.9,20,40S1236.1,490,1225,490z"/>
</g>
<g>
	<path class="st0" d="M1150,500v100h50V500H1150z M1175,590c-11.1,0-20-17.9-20-40s8.9-40,20-40s20,17.9,20,40S1186,590,1175,590z"
		/>
</g>
<g>
	<path class="st0" d="M1200,500v100h50V500H1200z M1225,590c-11,0-20-17.9-20-40s9-40,20-40s20,17.9,20,40S1236.1,590,1225,590z"/>
</g>
<g>
	<path class="st0" d="M1150,600v100h50V600H1150z M1175,690c-11.1,0-20-17.9-20-40s8.9-40,20-40s20,17.9,20,40S1186,690,1175,690z"
		/>
</g>
<g>
	<path class="st0" d="M1200,600v100h50V600H1200z M1225,690c-11,0-20-17.9-20-40s9-40,20-40s20,17.9,20,40S1236.1,690,1225,690z"/>
</g>
<g>
	<path class="st0" d="M1600,0v100h50V0H1600z M1625,90c-11.1,0-20-17.9-20-40s8.9-40,20-40s20,17.9,20,40S1636,90,1625,90z"/>
</g>
<g>
	<path class="st0" d="M1650,0v100h50V0H1650z M1675,90c-11,0-20-17.9-20-40s9-40,20-40s20,17.9,20,40S1686.1,90,1675,90z"/>
</g>
<g>
	<path class="st0" d="M1600,100v100h50V100H1600z M1625,190c-11.1,0-20-17.9-20-40s8.9-40,20-40s20,17.9,20,40S1636,190,1625,190z"
		/>
</g>
<g>
	<path class="st0" d="M1600,200v100h50V200H1600z M1625,290c-11.1,0-20-17.9-20-40s8.9-40,20-40s20,17.9,20,40S1636,290,1625,290z"
		/>
</g>
<g>
	<path class="st0" d="M1650,200v100h50V200H1650z M1675,290c-11,0-20-17.9-20-40s9-40,20-40s20,17.9,20,40S1686.1,290,1675,290z"/>
</g>
<g>
	<path class="st0" d="M1650,300v100h50V300H1650z M1675,390c-11,0-20-17.9-20-40s9-40,20-40s20,17.9,20,40S1686.1,390,1675,390z"/>
</g>
<g>
	<path class="st0" d="M1700,600v100h50V600H1700z M1725,690c-11.1,0-20-17.9-20-40s8.9-40,20-40s20,17.9,20,40S1736,690,1725,690z"
		/>
</g>
<g>
	<path class="st0" d="M1750,600v100h50V600H1750z M1775,690c-11,0-20-17.9-20-40s9-40,20-40s20,17.9,20,40S1786.1,690,1775,690z"/>
</g>
<g>
	<path class="st0" d="M1800,600v100h50V600H1800z M1825,690c-11.1,0-20-17.9-20-40s8.9-40,20-40s20,17.9,20,40S1836,690,1825,690z"
		/>
</g>
<g>
	<path class="st0" d="M1850,600v100h50V600H1850z M1875,690c-11,0-20-17.9-20-40s9-40,20-40s20,17.9,20,40S1886.1,690,1875,690z"/>
</g>
<g>
	<path class="st0" d="M1900,600v100h50V600H1900z M1925,690c-11.1,0-20-17.9-20-40s8.9-40,20-40s20,17.9,20,40S1936,690,1925,690z"
		/>
</g>
<g>
	<path class="st0" d="M1950,600v100h50V600H1950z M1975,690c-11,0-20-17.9-20-40s9-40,20-40s20,17.9,20,40S1986.1,690,1975,690z"/>
</g>
<g>
	<path class="st0" d="M1600,400v100h50V400H1600z M1625,490c-11.1,0-20-17.9-20-40s8.9-40,20-40s20,17.9,20,40S1636,490,1625,490z"
		/>
</g>
<g>
	<path class="st0" d="M1650,400v100h50V400H1650z M1675,490c-11,0-20-17.9-20-40s9-40,20-40s20,17.9,20,40S1686.1,490,1675,490z"/>
</g>
<g>
	<path class="st0" d="M1600,500v100h50V500H1600z M1625,590c-11.1,0-20-17.9-20-40s8.9-40,20-40s20,17.9,20,40S1636,590,1625,590z"
		/>
</g>
<g>
	<path class="st0" d="M1650,500v100h50V500H1650z M1675,590c-11,0-20-17.9-20-40s9-40,20-40s20,17.9,20,40S1686.1,590,1675,590z"/>
</g>
<g>
	<path class="st0" d="M1600,600v100h50V600H1600z M1625,690c-11.1,0-20-17.9-20-40s8.9-40,20-40s20,17.9,20,40S1636,690,1625,690z"
		/>
</g>
<g>
	<path class="st0" d="M1650,600v100h50V600H1650z M1675,690c-11,0-20-17.9-20-40s9-40,20-40s20,17.9,20,40S1686.1,690,1675,690z"/>
</g>
</svg>
